{
	"asset":{
		"generator":"Khronos glTF Blender I/O v3.6.28",
		"version":"2.0"
	},
	"extensionsUsed":[
		"KHR_materials_specular",
		"KHR_materials_ior"
	],
	"scene":0,
	"scenes":[
		{
			"name":"Scene",
			"nodes":[
				0,
				1
			]
		}
	],
	"nodes":[
		{
			"mesh":0,
			"name":"hummers.020",
			"rotation":[
				0.6409635543823242,
				0.29860633611679077,
				-0.29860636591911316,
				0.6409634947776794
			],
			"scale":[
				0.02019224502146244,
				0.02019224502146244,
				0.02019224502146244
			],
			"translation":[
				0.18729214370250702,
				5.312404632568359,
				-0.04041949659585953
			]
		},
		{
			"mesh":1,
			"name":"hummers.019",
			"rotation":[
				0.6409635543823242,
				0.29860633611679077,
				-0.29860636591911316,
				0.6409634947776794
			],
			"scale":[
				0.02019224502146244,
				0.02019224502146244,
				0.02019224502146244
			],
			"translation":[
				0.005754932761192322,
				0.9704599380493164,
				-0.003636866807937622
			]
		}
	],
	"materials":[
		{
			"doubleSided":true,
			"extensions":{
				"KHR_materials_specular":{
					"specularColorFactor":[
						0,
						0,
						0
					]
				},
				"KHR_materials_ior":{
					"ior":1.4500000476837158
				}
			},
			"name":"wire_224086086.002",
			"pbrMetallicRoughness":{
				"baseColorFactor":[
					0.800000011920929,
					0.800000011920929,
					0.800000011920929,
					1
				],
				"metallicFactor":0
			}
		},
		{
			"doubleSided":true,
			"extensions":{
				"KHR_materials_specular":{
					"specularColorFactor":[
						0,
						0,
						0
					]
				},
				"KHR_materials_ior":{
					"ior":1.4500000476837158
				}
			},
			"name":"wire_008061138.002",
			"pbrMetallicRoughness":{
				"baseColorFactor":[
					0.800000011920929,
					0.800000011920929,
					0.800000011920929,
					1
				],
				"metallicFactor":0
			}
		}
	],
	"meshes":[
		{
			"name":"hummers.030",
			"primitives":[
				{
					"attributes":{
						"POSITION":0,
						"NORMAL":1,
						"TEXCOORD_0":2
					},
					"indices":3,
					"material":0
				}
			]
		},
		{
			"name":"hummers.029",
			"primitives":[
				{
					"attributes":{
						"POSITION":4,
						"NORMAL":5,
						"TEXCOORD_0":6
					},
					"indices":7,
					"material":1
				}
			]
		}
	],
	"accessors":[
		{
			"bufferView":0,
			"componentType":5126,
			"count":5655,
			"max":[
				67.41744995117188,
				73.37065124511719,
				30.57402801513672
			],
			"min":[
				-54.115386962890625,
				-56.45405578613281,
				-32.077274322509766
			],
			"type":"VEC3"
		},
		{
			"bufferView":1,
			"componentType":5126,
			"count":5655,
			"type":"VEC3"
		},
		{
			"bufferView":2,
			"componentType":5126,
			"count":5655,
			"type":"VEC2"
		},
		{
			"bufferView":3,
			"componentType":5123,
			"count":29376,
			"type":"SCALAR"
		},
		{
			"bufferView":4,
			"componentType":5126,
			"count":1636,
			"max":[
				24.329769134521484,
				24.72179412841797,
				270.7560729980469
			],
			"min":[
				-24.841007232666016,
				-25.58289337158203,
				-251.30459594726562
			],
			"type":"VEC3"
		},
		{
			"bufferView":5,
			"componentType":5126,
			"count":1636,
			"type":"VEC3"
		},
		{
			"bufferView":6,
			"componentType":5126,
			"count":1636,
			"type":"VEC2"
		},
		{
			"bufferView":7,
			"componentType":5123,
			"count":8640,
			"type":"SCALAR"
		}
	],
	"bufferViews":[
		{
			"buffer":0,
			"byteLength":67860,
			"byteOffset":0,
			"target":34962
		},
		{
			"buffer":0,
			"byteLength":67860,
			"byteOffset":67860,
			"target":34962
		},
		{
			"buffer":0,
			"byteLength":45240,
			"byteOffset":135720,
			"target":34962
		},
		{
			"buffer":0,
			"byteLength":58752,
			"byteOffset":180960,
			"target":34963
		},
		{
			"buffer":0,
			"byteLength":19632,
			"byteOffset":239712,
			"target":34962
		},
		{
			"buffer":0,
			"byteLength":19632,
			"byteOffset":259344,
			"target":34962
		},
		{
			"buffer":0,
			"byteLength":13088,
			"byteOffset":278976,
			"target":34962
		},
		{
			"buffer":0,
			"byteLength":17280,
			"byteOffset":292064,
			"target":34963
		}
	],
	"buffers":[
		{
			"byteLength":309344,
			"uri":"data:application/octet-stream;base64,"
		}
	]
}
