{
	"asset":{
		"generator":"Khronos glTF Blender I/O v3.6.28",
		"version":"2.0"
	},
	"extensionsUsed":[
		"KHR_materials_specular",
		"KHR_materials_ior"
	],
	"scene":0,
	"scenes":[
		{
			"name":"Scene",
			"nodes":[
				0,
				1
			]
		}
	],
	"nodes":[
		{
			"mesh":0,
			"name":"hummers.022",
			"rotation":[
				0.6646727919578552,
				-0.24126778542995453,
				0.2412678301334381,
				0.6646726727485657
			],
			"scale":[
				0.02019224502146244,
				0.02019224502146244,
				0.02019224502146244
			],
			"translation":[
				-0.001964140683412552,
				5.229990005493164,
				-0.0007499419152736664
			]
		},
		{
			"mesh":1,
			"name":"hummers.015",
			"rotation":[
				0.6646727919578552,
				-0.24126778542995453,
				0.2412678301334381,
				0.6646726727485657
			],
			"scale":[
				0.02019224502146244,
				0.02019224502146244,
				0.02019224502146244
			],
			"translation":[
				0.04706711694598198,
				0.711458683013916,
				0.0010008551180362701
			]
		}
	],
	"materials":[
		{
			"doubleSided":true,
			"extensions":{
				"KHR_materials_specular":{
					"specularColorFactor":[
						0,
						0,
						0
					]
				},
				"KHR_materials_ior":{
					"ior":1.4500000476837158
				}
			},
			"name":"wire_224086086.002",
			"pbrMetallicRoughness":{
				"baseColorFactor":[
					0.800000011920929,
					0.800000011920929,
					0.800000011920929,
					1
				],
				"metallicFactor":0
			}
		},
		{
			"doubleSided":true,
			"extensions":{
				"KHR_materials_specular":{
					"specularColorFactor":[
						0,
						0,
						0
					]
				},
				"KHR_materials_ior":{
					"ior":1.4500000476837158
				}
			},
			"name":"wire_008061138.002",
			"pbrMetallicRoughness":{
				"baseColorFactor":[
					0.800000011920929,
					0.800000011920929,
					0.800000011920929,
					1
				],
				"metallicFactor":0
			}
		}
	],
	"meshes":[
		{
			"name":"hummers.032",
			"primitives":[
				{
					"attributes":{
						"POSITION":0,
						"NORMAL":1,
						"TEXCOORD_0":2
					},
					"indices":3,
					"material":0
				}
			]
		},
		{
			"name":"hummers.025",
			"primitives":[
				{
					"attributes":{
						"POSITION":4,
						"NORMAL":5,
						"TEXCOORD_0":6
					},
					"indices":7,
					"material":1
				}
			]
		}
	],
	"accessors":[
		{
			"bufferView":0,
			"componentType":5126,
			"count":1952,
			"max":[
				75.79501342773438,
				65.32877349853516,
				22.848297119140625
			],
			"min":[
				-73.23392486572266,
				-67.6557846069336,
				-22.943328857421875
			],
			"type":"VEC3"
		},
		{
			"bufferView":1,
			"componentType":5126,
			"count":1952,
			"type":"VEC3"
		},
		{
			"bufferView":2,
			"componentType":5126,
			"count":1952,
			"type":"VEC2"
		},
		{
			"bufferView":3,
			"componentType":5123,
			"count":10560,
			"type":"SCALAR"
		},
		{
			"bufferView":4,
			"componentType":5126,
			"count":1636,
			"max":[
				25.711334228515625,
				25.835411071777344,
				272.5954284667969
			],
			"min":[
				-26.607208251953125,
				-25.303749084472656,
				-257.50225830078125
			],
			"type":"VEC3"
		},
		{
			"bufferView":5,
			"componentType":5126,
			"count":1636,
			"type":"VEC3"
		},
		{
			"bufferView":6,
			"componentType":5126,
			"count":1636,
			"type":"VEC2"
		},
		{
			"bufferView":7,
			"componentType":5123,
			"count":8640,
			"type":"SCALAR"
		}
	],
	"bufferViews":[
		{
			"buffer":0,
			"byteLength":23424,
			"byteOffset":0,
			"target":34962
		},
		{
			"buffer":0,
			"byteLength":23424,
			"byteOffset":23424,
			"target":34962
		},
		{
			"buffer":0,
			"byteLength":15616,
			"byteOffset":46848,
			"target":34962
		},
		{
			"buffer":0,
			"byteLength":21120,
			"byteOffset":62464,
			"target":34963
		},
		{
			"buffer":0,
			"byteLength":19632,
			"byteOffset":83584,
			"target":34962
		},
		{
			"buffer":0,
			"byteLength":19632,
			"byteOffset":103216,
			"target":34962
		},
		{
			"buffer":0,
			"byteLength":13088,
			"byteOffset":122848,
			"target":34962
		},
		{
			"buffer":0,
			"byteLength":17280,
			"byteOffset":135936,
			"target":34963
		}
	],
	"buffers":[
		{
			"byteLength":153216,
			"uri":"data:application/octet-stream;base64,"
		}
	]
}
