{
	"asset":{
		"generator":"Khronos glTF Blender I/O v3.6.28",
		"version":"2.0"
	},
	"extensionsUsed":[
		"KHR_materials_specular",
		"KHR_materials_ior"
	],
	"scene":0,
	"scenes":[
		{
			"name":"Scene",
			"nodes":[
				0,
				1
			]
		}
	],
	"nodes":[
		{
			"mesh":0,
			"name":"hummers.021",
			"rotation":[
				0.6900829672813416,
				-0.15422563254833221,
				0.1542256474494934,
				0.6900829076766968
			],
			"scale":[
				0.020192256197333336,
				0.020192256197333336,
				0.02019224502146244
			],
			"translation":[
				0.0012861993163824081,
				5.102590084075928,
				-0.001492490991950035
			]
		},
		{
			"mesh":1,
			"name":"hummers.017",
			"rotation":[
				0.6900829672813416,
				-0.15422563254833221,
				0.1542256474494934,
				0.6900829076766968
			],
			"scale":[
				0.020192256197333336,
				0.020192256197333336,
				0.02019224502146244
			],
			"translation":[
				0.03886803239583969,
				0.6560673713684082,
				0.016049940139055252
			]
		}
	],
	"materials":[
		{
			"doubleSided":true,
			"extensions":{
				"KHR_materials_specular":{
					"specularColorFactor":[
						0,
						0,
						0
					]
				},
				"KHR_materials_ior":{
					"ior":1.4500000476837158
				}
			},
			"name":"wire_224086086.002",
			"pbrMetallicRoughness":{
				"baseColorFactor":[
					0.800000011920929,
					0.800000011920929,
					0.800000011920929,
					1
				],
				"metallicFactor":0
			}
		},
		{
			"doubleSided":true,
			"extensions":{
				"KHR_materials_specular":{
					"specularColorFactor":[
						0,
						0,
						0
					]
				},
				"KHR_materials_ior":{
					"ior":1.4500000476837158
				}
			},
			"name":"wire_008061138.002",
			"pbrMetallicRoughness":{
				"baseColorFactor":[
					0.800000011920929,
					0.800000011920929,
					0.800000011920929,
					1
				],
				"metallicFactor":0
			}
		}
	],
	"meshes":[
		{
			"name":"hummers.031",
			"primitives":[
				{
					"attributes":{
						"POSITION":0,
						"NORMAL":1,
						"TEXCOORD_0":2
					},
					"indices":3,
					"material":0
				}
			]
		},
		{
			"name":"hummers.027",
			"primitives":[
				{
					"attributes":{
						"POSITION":4,
						"NORMAL":5,
						"TEXCOORD_0":6
					},
					"indices":7,
					"material":1
				}
			]
		}
	],
	"accessors":[
		{
			"bufferView":0,
			"componentType":5126,
			"count":2280,
			"max":[
				80.52356719970703,
				58.83246994018555,
				19.47039031982422
			],
			"min":[
				-89.12120819091797,
				-54.49663162231445,
				-19.61505889892578
			],
			"type":"VEC3"
		},
		{
			"bufferView":1,
			"componentType":5126,
			"count":2280,
			"type":"VEC3"
		},
		{
			"bufferView":2,
			"componentType":5126,
			"count":2280,
			"type":"VEC2"
		},
		{
			"bufferView":3,
			"componentType":5123,
			"count":12144,
			"type":"SCALAR"
		},
		{
			"bufferView":4,
			"componentType":5126,
			"count":1636,
			"max":[
				24.4792537689209,
				22.480960845947266,
				262.1036376953125
			],
			"min":[
				-25.7387638092041,
				-22.458492279052734,
				-247.591552734375
			],
			"type":"VEC3"
		},
		{
			"bufferView":5,
			"componentType":5126,
			"count":1636,
			"type":"VEC3"
		},
		{
			"bufferView":6,
			"componentType":5126,
			"count":1636,
			"type":"VEC2"
		},
		{
			"bufferView":7,
			"componentType":5123,
			"count":8640,
			"type":"SCALAR"
		}
	],
	"bufferViews":[
		{
			"buffer":0,
			"byteLength":27360,
			"byteOffset":0,
			"target":34962
		},
		{
			"buffer":0,
			"byteLength":27360,
			"byteOffset":27360,
			"target":34962
		},
		{
			"buffer":0,
			"byteLength":18240,
			"byteOffset":54720,
			"target":34962
		},
		{
			"buffer":0,
			"byteLength":24288,
			"byteOffset":72960,
			"target":34963
		},
		{
			"buffer":0,
			"byteLength":19632,
			"byteOffset":97248,
			"target":34962
		},
		{
			"buffer":0,
			"byteLength":19632,
			"byteOffset":116880,
			"target":34962
		},
		{
			"buffer":0,
			"byteLength":13088,
			"byteOffset":136512,
			"target":34962
		},
		{
			"buffer":0,
			"byteLength":17280,
			"byteOffset":149600,
			"target":34963
		}
	],
	"buffers":[
		{
			"byteLength":166880,
			"uri":"data:application/octet-stream;base64,"
		}
	]
}
