{
	"asset":{
		"generator":"Khronos glTF Blender I/O v3.6.28",
		"version":"2.0"
	},
	"extensionsUsed":[
		"KHR_materials_specular",
		"KHR_materials_ior"
	],
	"scene":0,
	"scenes":[
		{
			"name":"Scene",
			"nodes":[
				0,
				1
			]
		}
	],
	"nodes":[
		{
			"mesh":0,
			"name":"hummers.023",
			"rotation":[
				0.683010458946228,
				0.18302121758460999,
				-0.18302124738693237,
				0.683010458946228
			],
			"scale":[
				0.02019224688410759,
				0.02019224688410759,
				0.02019224502146244
			],
			"translation":[
				0.004071682691574097,
				0.9561455249786377,
				-0.0011756308376789093
			]
		},
		{
			"mesh":1,
			"name":"hummers.018",
			"rotation":[
				0.683010458946228,
				0.18302121758460999,
				-0.18302124738693237,
				0.683010458946228
			],
			"scale":[
				0.02019224688410759,
				0.02019224688410759,
				0.02019224502146244
			],
			"translation":[
				0.6555318832397461,
				5.142913818359375,
				-0.007651347666978836
			]
		}
	],
	"materials":[
		{
			"doubleSided":true,
			"extensions":{
				"KHR_materials_specular":{
					"specularColorFactor":[
						0,
						0,
						0
					]
				},
				"KHR_materials_ior":{
					"ior":1.4500000476837158
				}
			},
			"name":"wire_008061138.002",
			"pbrMetallicRoughness":{
				"baseColorFactor":[
					0.800000011920929,
					0.800000011920929,
					0.800000011920929,
					1
				],
				"metallicFactor":0
			}
		},
		{
			"doubleSided":true,
			"extensions":{
				"KHR_materials_specular":{
					"specularColorFactor":[
						0,
						0,
						0
					]
				},
				"KHR_materials_ior":{
					"ior":1.4500000476837158
				}
			},
			"name":"wire_224086086.002",
			"pbrMetallicRoughness":{
				"baseColorFactor":[
					0.800000011920929,
					0.800000011920929,
					0.800000011920929,
					1
				],
				"metallicFactor":0
			}
		}
	],
	"meshes":[
		{
			"name":"hummers.033",
			"primitives":[
				{
					"attributes":{
						"POSITION":0,
						"NORMAL":1,
						"TEXCOORD_0":2
					},
					"indices":3,
					"material":0
				}
			]
		},
		{
			"name":"hummers.028",
			"primitives":[
				{
					"attributes":{
						"POSITION":4,
						"NORMAL":5,
						"TEXCOORD_0":6
					},
					"indices":7,
					"material":1
				}
			]
		}
	],
	"accessors":[
		{
			"bufferView":0,
			"componentType":5126,
			"count":1636,
			"max":[
				24.66501808166504,
				22.95412826538086,
				232.24130249023438
			],
			"min":[
				-25.82570457458496,
				-23.58884048461914,
				-234.77679443359375
			],
			"type":"VEC3"
		},
		{
			"bufferView":1,
			"componentType":5126,
			"count":1636,
			"type":"VEC3"
		},
		{
			"bufferView":2,
			"componentType":5126,
			"count":1636,
			"type":"VEC2"
		},
		{
			"bufferView":3,
			"componentType":5123,
			"count":8640,
			"type":"SCALAR"
		},
		{
			"bufferView":4,
			"componentType":5126,
			"count":2288,
			"max":[
				58.64933776855469,
				37.407676696777344,
				18.358963012695312
			],
			"min":[
				-90.86665344238281,
				-66.24027252197266,
				-18.536483764648438
			],
			"type":"VEC3"
		},
		{
			"bufferView":5,
			"componentType":5126,
			"count":2288,
			"type":"VEC3"
		},
		{
			"bufferView":6,
			"componentType":5126,
			"count":2288,
			"type":"VEC2"
		},
		{
			"bufferView":7,
			"componentType":5123,
			"count":12144,
			"type":"SCALAR"
		}
	],
	"bufferViews":[
		{
			"buffer":0,
			"byteLength":19632,
			"byteOffset":0,
			"target":34962
		},
		{
			"buffer":0,
			"byteLength":19632,
			"byteOffset":19632,
			"target":34962
		},
		{
			"buffer":0,
			"byteLength":13088,
			"byteOffset":39264,
			"target":34962
		},
		{
			"buffer":0,
			"byteLength":17280,
			"byteOffset":52352,
			"target":34963
		},
		{
			"buffer":0,
			"byteLength":27456,
			"byteOffset":69632,
			"target":34962
		},
		{
			"buffer":0,
			"byteLength":27456,
			"byteOffset":97088,
			"target":34962
		},
		{
			"buffer":0,
			"byteLength":18304,
			"byteOffset":124544,
			"target":34962
		},
		{
			"buffer":0,
			"byteLength":24288,
			"byteOffset":142848,
			"target":34963
		}
	],
	"buffers":[
		{
			"byteLength":167136,
			"uri":"data:application/octet-stream;base64,"
		}
	]
}
