{
	"asset":{
		"generator":"Khronos glTF Blender I/O v3.6.28",
		"version":"2.0"
	},
	"extensionsUsed":[
		"KHR_materials_specular",
		"KHR_materials_ior"
	],
	"scene":0,
	"scenes":[
		{
			"name":"Scene",
			"nodes":[
				0,
				1
			]
		}
	],
	"nodes":[
		{
			"mesh":0,
			"name":"hummers.024",
			"rotation":[
				0.6741634011268616,
				0.2133161425590515,
				-0.2133161872625351,
				0.674163281917572
			],
			"scale":[
				0.02019224688410759,
				0.02019224688410759,
				0.02019224502146244
			],
			"translation":[
				0.0004563438706099987,
				0.46520090103149414,
				-0.0001424252986907959
			]
		},
		{
			"mesh":1,
			"name":"hummers.016",
			"rotation":[
				0.6741634011268616,
				0.2133161425590515,
				-0.2133161872625351,
				0.674163281917572
			],
			"scale":[
				0.02019224688410759,
				0.02019224688410759,
				0.02019224502146244
			],
			"translation":[
				0.00048209307715296745,
				5.329261779785156,
				0.09999058395624161
			]
		}
	],
	"materials":[
		{
			"doubleSided":true,
			"extensions":{
				"KHR_materials_specular":{
					"specularColorFactor":[
						0,
						0,
						0
					]
				},
				"KHR_materials_ior":{
					"ior":1.4500000476837158
				}
			},
			"name":"wire_008061138.002",
			"pbrMetallicRoughness":{
				"baseColorFactor":[
					0.800000011920929,
					0.800000011920929,
					0.800000011920929,
					1
				],
				"metallicFactor":0
			}
		},
		{
			"doubleSided":true,
			"extensions":{
				"KHR_materials_specular":{
					"specularColorFactor":[
						0,
						0,
						0
					]
				},
				"KHR_materials_ior":{
					"ior":1.4500000476837158
				}
			},
			"name":"wire_224086086.002",
			"pbrMetallicRoughness":{
				"baseColorFactor":[
					0.800000011920929,
					0.800000011920929,
					0.800000011920929,
					1
				],
				"metallicFactor":0
			}
		}
	],
	"meshes":[
		{
			"name":"hummers.034",
			"primitives":[
				{
					"attributes":{
						"POSITION":0,
						"NORMAL":1,
						"TEXCOORD_0":2
					},
					"indices":3,
					"material":0
				}
			]
		},
		{
			"name":"hummers.026",
			"primitives":[
				{
					"attributes":{
						"POSITION":4,
						"NORMAL":5,
						"TEXCOORD_0":6
					},
					"indices":7,
					"material":1
				}
			]
		}
	],
	"accessors":[
		{
			"bufferView":0,
			"componentType":5126,
			"count":1636,
			"max":[
				24.79102325439453,
				23.669979095458984,
				309.17681884765625
			],
			"min":[
				-25.73607635498047,
				-24.369571685791016,
				-267.792236328125
			],
			"type":"VEC3"
		},
		{
			"bufferView":1,
			"componentType":5126,
			"count":1636,
			"type":"VEC3"
		},
		{
			"bufferView":2,
			"componentType":5126,
			"count":1636,
			"type":"VEC2"
		},
		{
			"bufferView":3,
			"componentType":5123,
			"count":8640,
			"type":"SCALAR"
		},
		{
			"bufferView":4,
			"componentType":5126,
			"count":1485,
			"max":[
				90.06177520751953,
				66.24689483642578,
				29.118362426757812
			],
			"min":[
				-88.54589080810547,
				-83.58757781982422,
				-29.877792358398438
			],
			"type":"VEC3"
		},
		{
			"bufferView":5,
			"componentType":5126,
			"count":1485,
			"type":"VEC3"
		},
		{
			"bufferView":6,
			"componentType":5126,
			"count":1485,
			"type":"VEC2"
		},
		{
			"bufferView":7,
			"componentType":5123,
			"count":6864,
			"type":"SCALAR"
		}
	],
	"bufferViews":[
		{
			"buffer":0,
			"byteLength":19632,
			"byteOffset":0,
			"target":34962
		},
		{
			"buffer":0,
			"byteLength":19632,
			"byteOffset":19632,
			"target":34962
		},
		{
			"buffer":0,
			"byteLength":13088,
			"byteOffset":39264,
			"target":34962
		},
		{
			"buffer":0,
			"byteLength":17280,
			"byteOffset":52352,
			"target":34963
		},
		{
			"buffer":0,
			"byteLength":17820,
			"byteOffset":69632,
			"target":34962
		},
		{
			"buffer":0,
			"byteLength":17820,
			"byteOffset":87452,
			"target":34962
		},
		{
			"buffer":0,
			"byteLength":11880,
			"byteOffset":105272,
			"target":34962
		},
		{
			"buffer":0,
			"byteLength":13728,
			"byteOffset":117152,
			"target":34963
		}
	],
	"buffers":[
		{
			"byteLength":130880,
			"uri":"data:application/octet-stream;base64,"
		}
	]
}
